<svg width="240" height="240" viewBox="0 0 240 240" fill="none" xmlns="http://www.w3.org/2000/svg">
<path d="M204.251 85.3464C202.969 86.341 180.328 99.094 180.328 127.451C180.328 160.251 209.138 171.854 210 172.142C209.867 172.849 205.423 188.033 194.81 203.505C185.347 217.12 175.464 230.713 160.429 230.713C145.394 230.713 141.524 221.982 124.168 221.982C107.253 221.982 101.239 231 87.4868 231C73.7342 231 64.1383 218.402 53.1053 202.93C40.3255 184.762 30 156.538 30 129.75C30 86.7831 57.9474 63.9957 85.4527 63.9957C100.068 63.9957 112.25 73.5881 121.426 73.5881C130.16 73.5881 143.78 63.421 160.407 63.421C166.708 63.421 189.349 63.9957 204.251 85.3464ZM152.513 45.2309C159.39 37.0752 164.254 25.7589 164.254 14.4425C164.254 12.8733 164.121 11.2819 163.834 10C152.646 10.4199 139.335 17.4484 131.309 26.7535C125.008 33.9146 119.127 45.2309 119.127 56.702C119.127 58.4259 119.414 60.1499 119.547 60.7025C120.254 60.8351 121.404 60.9898 122.554 60.9898C132.592 60.9898 145.217 54.2707 152.513 45.2309Z" fill="black"/>
</svg>
