<svg width="400" height="400" viewBox="0 0 400 400" fill="none" xmlns="http://www.w3.org/2000/svg">
<path d="M85.0767 270.232C87.1223 268.191 89.9349 267 92.918 267H363.443C368.386 267 370.858 272.954 367.363 276.441L313.923 329.768C311.878 331.809 309.065 333 306.082 333H35.5572C30.6138 333 28.1421 327.046 31.6366 323.559L85.0767 270.232Z" fill="url(#paint0_linear_562_79959)"/>
<path d="M85.0767 70.232C87.2075 68.1907 90.0202 67 92.918 67H363.443C368.386 67 370.858 72.9536 367.363 76.4407L313.923 129.768C311.878 131.809 309.065 133 306.082 133H35.5572C30.6138 133 28.1421 127.046 31.6366 123.559L85.0767 70.232Z" fill="url(#paint1_linear_562_79959)"/>
<path d="M313.923 169.232C311.878 167.191 309.065 166 306.082 166H35.5572C30.6138 166 28.1421 171.954 31.6366 175.441L85.0767 228.768C87.1223 230.809 89.9349 232 92.918 232H363.443C368.386 232 370.858 226.046 367.363 222.559L313.923 169.232Z" fill="url(#paint2_linear_562_79959)"/>
<defs>
<linearGradient id="paint0_linear_562_79959" x1="337.6" y1="36.038" x2="150.996" y2="394.215" gradientUnits="userSpaceOnUse">
<stop stop-color="#00FFA3"/>
<stop offset="1" stop-color="#DC1FFF"/>
</linearGradient>
<linearGradient id="paint1_linear_562_79959" x1="255.735" y1="-7.50635" x2="69.1314" y2="350.671" gradientUnits="userSpaceOnUse">
<stop stop-color="#00FFA3"/>
<stop offset="1" stop-color="#DC1FFF"/>
</linearGradient>
<linearGradient id="paint2_linear_562_79959" x1="296.407" y1="13.7679" x2="109.803" y2="371.945" gradientUnits="userSpaceOnUse">
<stop stop-color="#00FFA3"/>
<stop offset="1" stop-color="#DC1FFF"/>
</linearGradient>
</defs>
</svg>
