<svg width="400" height="400" viewBox="0 0 400 400" fill="none" xmlns="http://www.w3.org/2000/svg">
<path d="M61 344.189C61.812 347.356 64.554 350.593 68.316 351.404H79.686L80.266 351.633V380.324H87.366V351.633L88.011 351.404H99.391C103.195 350.424 105.878 347.356 106.676 344.189V344.119H61V344.189Z" fill="#E82127"/>
<path d="M131.271 380.405H158.282C162.04 379.658 164.833 376.347 165.616 373.142H123.937C124.715 376.348 127.549 379.658 131.271 380.405Z" fill="#E82127"/>
<path d="M131.271 365.688H158.282C162.04 364.947 164.833 361.635 165.616 358.426H123.937C124.715 361.636 127.549 364.947 131.271 365.688Z" fill="#E82127"/>
<path d="M131.271 351.366H158.282C162.04 350.617 164.833 347.308 165.616 344.101H123.937C124.715 347.308 127.549 350.617 131.271 351.366Z" fill="#E82127"/>
<path d="M192.874 351.297H217.828C221.59 350.204 224.749 347.338 225.519 344.161H185.879V365.576H218.323V373.091L192.874 373.111C188.886 374.223 185.504 376.901 183.817 380.438L185.879 380.4H225.294V358.456H192.874V351.297Z" fill="#E82127"/>
<path d="M277.795 380.409C281.338 378.907 283.244 376.309 283.974 373.269H252.457L252.477 344.151L245.412 344.171V380.409H277.795Z" fill="#E82127"/>
<path d="M305.321 351.395H332.341C336.094 350.649 338.885 347.337 339.672 344.133H297.991C298.77 347.338 301.602 350.649 305.321 351.395Z" fill="#E82127"/>
<path d="M299.077 358.483V380.395H306.104V365.806H331.679V380.395H338.701V358.521L299.077 358.483Z" fill="#E82127"/>
<path d="M200.35 272.502L235.826 72.983C269.641 72.983 280.307 76.691 281.847 91.826C281.847 91.826 304.531 83.368 315.972 66.19C271.326 45.502 226.467 44.569 226.467 44.569L200.291 76.451L200.35 76.447L174.174 44.564C174.174 44.564 129.314 45.498 84.6738 66.186C96.1048 83.364 118.798 91.822 118.798 91.822C120.347 76.686 131 72.978 164.588 72.954L200.35 272.502Z" fill="#E82127"/>
<path d="M200.336 35.36C236.426 35.084 277.735 40.943 320.023 59.374C325.675 49.201 327.128 44.705 327.128 44.705C280.901 26.416 237.61 20.157 200.331 20C163.054 20.157 119.765 26.417 73.5439 44.705C73.5439 44.705 75.6059 50.243 80.6439 59.374C122.924 40.943 164.24 35.084 200.331 35.36H200.336Z" fill="#E82127"/>
</svg>
